<svg width="52" height="52" viewBox="0 0 52 52" fill="none" xmlns="http://www.w3.org/2000/svg">
    <g filter="url(#filter0_d_1_8340)">
        <rect x="2" y="1" width="48" height="48" rx="24" fill="url(#paint0_radial_1_8340)" shape-rendering="crispEdges"/>
        <rect x="2.5" y="1.5" width="47" height="47" rx="23.5" stroke="url(#paint1_linear_1_8340)" shape-rendering="crispEdges"/>
        <path fill-rule="evenodd" clip-rule="evenodd" d="M26 16C21.0294 16 17 20.0294 17 25C17 29.9706 21.0294 34 26 34C30.9706 34 35 29.9706 35 25C35 20.0294 30.9706 16 26 16ZM15 25C15 18.9249 19.9249 14 26 14C32.0751 14 37 18.9249 37 25C37 31.0751 32.0751 36 26 36C19.9249 36 15 31.0751 15 25ZM26 20C26.5523 20 27 20.4477 27 21V26.5858L29.2929 24.2929C29.6834 23.9024 30.3166 23.9024 30.7071 24.2929C31.0976 24.6834 31.0976 25.3166 30.7071 25.7071L26.7071 29.7071C26.3166 30.0976 25.6834 30.0976 25.2929 29.7071L21.2929 25.7071C20.9024 25.3166 20.9024 24.6834 21.2929 24.2929C21.6834 23.9024 22.3166 23.9024 22.7071 24.2929L25 26.5858V21C25 20.4477 25.4477 20 26 20Z" fill="url(#paint2_linear_1_8340)"/>
    </g>
    <defs>
        <filter id="filter0_d_1_8340" x="0" y="0" width="52" height="52" filterUnits="userSpaceOnUse" color-interpolation-filters="sRGB">
            <feFlood flood-opacity="0" result="BackgroundImageFix"/>
            <feColorMatrix in="SourceAlpha" type="matrix" values="0 0 0 0 0 0 0 0 0 0 0 0 0 0 0 0 0 0 127 0" result="hardAlpha"/>
            <feOffset dy="1"/>
            <feGaussianBlur stdDeviation="1"/>
            <feComposite in2="hardAlpha" operator="out"/>
            <feColorMatrix type="matrix" values="0 0 0 0 0.0627451 0 0 0 0 0.0941176 0 0 0 0 0.156863 0 0 0 0.05 0"/>
            <feBlend mode="normal" in2="BackgroundImageFix" result="effect1_dropShadow_1_8340"/>
            <feBlend mode="normal" in="SourceGraphic" in2="effect1_dropShadow_1_8340" result="shape"/>
        </filter>
        <radialGradient id="paint0_radial_1_8340" cx="0" cy="0" r="1" gradientUnits="userSpaceOnUse" gradientTransform="translate(26 1) rotate(90) scale(27)">
            <stop stop-color="#213971"/>
            <stop offset="1" stop-color="#00040B" stop-opacity="0.54"/>
        </radialGradient>
        <linearGradient id="paint1_linear_1_8340" x1="19" y1="3.5" x2="28" y2="50.5" gradientUnits="userSpaceOnUse">
            <stop stop-color="#9EBAF8" stop-opacity="0.94"/>
            <stop offset="1" stop-color="#354D81" stop-opacity="0"/>
        </linearGradient>
        <linearGradient id="paint2_linear_1_8340" x1="26" y1="14" x2="26" y2="36" gradientUnits="userSpaceOnUse">
            <stop stop-color="#BFD3FF"/>
            <stop offset="1" stop-color="#467AEB" stop-opacity="0.19"/>
        </linearGradient>
    </defs>
</svg>
