<svg width="52" height="52" viewBox="0 0 52 52" fill="none" xmlns="http://www.w3.org/2000/svg">
    <g filter="url(#filter0_d_1_8348)">
        <rect x="2" y="1" width="48" height="48" rx="24" fill="url(#paint0_radial_1_8348)" shape-rendering="crispEdges"/>
        <rect x="2.5" y="1.5" width="47" height="47" rx="23.5" stroke="url(#paint1_linear_1_8348)" shape-rendering="crispEdges"/>
        <path fill-rule="evenodd" clip-rule="evenodd" d="M22.459 13.9998C22.4722 13.9999 22.4839 14 22.494 14H28.2495C28.5775 14 28.8847 14.1608 29.0715 14.4304C29.2583 14.7 29.301 15.044 29.1859 15.3511L27.4425 20L33.1537 20C33.4177 20 33.6788 19.9999 33.8897 20.0187C34.0802 20.0357 34.4666 20.0803 34.7907 20.3541C35.1546 20.6615 35.3509 21.1234 35.3196 21.5987C35.2917 22.022 35.0556 22.3312 34.9355 22.4801C34.8027 22.6449 34.6214 22.8328 34.4382 23.0228L22.2194 35.6941C21.899 36.0264 21.3929 36.0962 20.9946 35.8631C20.5962 35.6301 20.4091 35.1547 20.5417 34.7127L23.1555 26H18.294C18.2835 26 18.2729 26 18.2624 26C18.0761 26.0001 17.8745 26.0001 17.7045 25.9846C17.5263 25.9682 17.2291 25.9252 16.9488 25.7292C16.6107 25.4927 16.385 25.1274 16.3247 24.7192C16.2747 24.3809 16.3691 24.0959 16.4342 23.9292C16.4963 23.7702 16.5865 23.5898 16.6699 23.4233C16.6746 23.4138 16.6793 23.4044 16.684 23.395L20.884 14.995C20.8885 14.986 20.8936 14.9755 20.8994 14.9636C20.955 14.8496 21.0704 14.6131 21.259 14.4284C21.4178 14.2728 21.6093 14.1545 21.8195 14.082C22.069 13.9959 22.3321 13.9985 22.459 13.9998ZM22.6176 16L18.6176 24H24.4995C24.8156 24 25.1131 24.1495 25.3018 24.4031C25.4905 24.6567 25.5482 24.9846 25.4574 25.2874L23.6424 31.3371L32.6461 22H25.9995C25.6716 22 25.3644 21.8392 25.1776 21.5696C24.9908 21.3 24.9481 20.956 25.0632 20.6489L26.8065 16H22.6176Z" fill="url(#paint2_linear_1_8348)"/>
    </g>
    <defs>
        <filter id="filter0_d_1_8348" x="0" y="0" width="52" height="52" filterUnits="userSpaceOnUse" color-interpolation-filters="sRGB">
            <feFlood flood-opacity="0" result="BackgroundImageFix"/>
            <feColorMatrix in="SourceAlpha" type="matrix" values="0 0 0 0 0 0 0 0 0 0 0 0 0 0 0 0 0 0 127 0" result="hardAlpha"/>
            <feOffset dy="1"/>
            <feGaussianBlur stdDeviation="1"/>
            <feComposite in2="hardAlpha" operator="out"/>
            <feColorMatrix type="matrix" values="0 0 0 0 0.0627451 0 0 0 0 0.0941176 0 0 0 0 0.156863 0 0 0 0.05 0"/>
            <feBlend mode="normal" in2="BackgroundImageFix" result="effect1_dropShadow_1_8348"/>
            <feBlend mode="normal" in="SourceGraphic" in2="effect1_dropShadow_1_8348" result="shape"/>
        </filter>
        <radialGradient id="paint0_radial_1_8348" cx="0" cy="0" r="1" gradientUnits="userSpaceOnUse" gradientTransform="translate(26 1) rotate(90) scale(27)">
            <stop stop-color="#213971"/>
            <stop offset="1" stop-color="#00040B" stop-opacity="0.54"/>
        </radialGradient>
        <linearGradient id="paint1_linear_1_8348" x1="19" y1="3.5" x2="28" y2="50.5" gradientUnits="userSpaceOnUse">
            <stop stop-color="#9EBAF8" stop-opacity="0.94"/>
            <stop offset="1" stop-color="#354D81" stop-opacity="0"/>
        </linearGradient>
        <linearGradient id="paint2_linear_1_8348" x1="25.8167" y1="13.9994" x2="25.8167" y2="36" gradientUnits="userSpaceOnUse">
            <stop stop-color="#BFD3FF"/>
            <stop offset="1" stop-color="#467AEB" stop-opacity="0.19"/>
        </linearGradient>
    </defs>
</svg>
