<svg width="25" height="24" viewBox="0 0 25 24" fill="none" xmlns="http://www.w3.org/2000/svg">
    <g clip-path="url(#clip0_13_5)">
        <path d="M12.4998 9.81815V14.4654H18.958C18.6744 15.96 17.8234 17.2255 16.547 18.0764L20.4416 21.0982C22.7107 19.0037 24.0198 15.9273 24.0198 12.2728C24.0198 11.4219 23.9434 10.6037 23.8015 9.81828L12.4998 9.81815Z" fill="#4285F4"/>
        <path d="M5.77468 14.284L4.89631 14.9564L1.78717 17.3782C3.76171 21.2945 7.80868 24 12.4996 24C15.7395 24 18.4558 22.9309 20.4413 21.0982L16.5468 18.0764C15.4777 18.7964 14.114 19.2328 12.4996 19.2328C9.37957 19.2328 6.72874 17.1273 5.77958 14.291L5.77468 14.284Z" fill="#34A853"/>
        <path d="M1.78718 6.62183C0.969042 8.23631 0.5 10.0581 0.5 11.9999C0.5 13.9417 0.969042 15.7636 1.78718 17.378C1.78718 17.3889 5.77997 14.2799 5.77997 14.2799C5.53998 13.5599 5.39812 12.7963 5.39812 11.9998C5.39812 11.2033 5.53998 10.4398 5.77997 9.71976L1.78718 6.62183Z" fill="#FBBC05"/>
        <path d="M12.4998 4.77818C14.2671 4.77818 15.838 5.38907 17.0925 6.56727L20.5289 3.13095C18.4452 1.18917 15.7398 0 12.4998 0C7.80893 0 3.76171 2.69454 1.78717 6.62183L5.77984 9.72001C6.72888 6.88362 9.37982 4.77818 12.4998 4.77818Z" fill="#EA4335"/>
    </g>
    <defs>
        <clipPath id="clip0_13_5">
            <rect width="24" height="24" fill="white" transform="translate(0.5)"/>
        </clipPath>
    </defs>
</svg>
