<svg width="52" height="52" viewBox="0 0 52 52" fill="none" xmlns="http://www.w3.org/2000/svg">
    <g filter="url(#filter0_d_1_8364)">
        <rect x="2" y="1" width="48" height="48" rx="24" fill="url(#paint0_radial_1_8364)" shape-rendering="crispEdges"/>
        <rect x="2.5" y="1.5" width="47" height="47" rx="23.5" stroke="url(#paint1_linear_1_8364)" shape-rendering="crispEdges"/>
        <path fill-rule="evenodd" clip-rule="evenodd" d="M22.4717 13.9999C22.4892 13.9999 22.5062 14 22.5227 14H29.4773C29.4938 14 29.5109 13.9999 29.5283 13.9999C29.7182 13.9994 29.9574 13.9988 30.1927 14.0553C30.3968 14.1042 30.5918 14.1851 30.7708 14.2947C30.9771 14.4212 31.1458 14.5907 31.2797 14.7254C31.292 14.7377 31.304 14.7498 31.3157 14.7615L36.2385 19.6843C36.2502 19.696 36.2623 19.708 36.2747 19.7203C36.4093 19.8542 36.5788 20.0229 36.7053 20.2292C36.8149 20.4082 36.8958 20.6032 36.9447 20.8073C37.0012 21.0426 37.0006 21.2818 37.0001 21.4717C37.0001 21.4891 37 21.5062 37 21.5227V28.4773C37 28.4938 37.0001 28.5109 37.0001 28.5283C37.0006 28.7182 37.0012 28.9573 36.9447 29.1927C36.8958 29.3967 36.8149 29.5918 36.7053 29.7708C36.5788 29.9771 36.4093 30.1458 36.2746 30.2797C36.2623 30.292 36.2502 30.304 36.2385 30.3157L31.3157 35.2385C31.304 35.2502 31.292 35.2623 31.2797 35.2746C31.1458 35.4093 30.9771 35.5788 30.7708 35.7053C30.5918 35.8149 30.3968 35.8957 30.1927 35.9447C29.9574 36.0012 29.7182 36.0006 29.5283 36.0001C29.5109 36 29.4938 36 29.4773 36H22.5227C22.5062 36 22.4891 36 22.4717 36.0001C22.2818 36.0006 22.0427 36.0012 21.8073 35.9447C21.6033 35.8957 21.4082 35.8149 21.2292 35.7053C21.0229 35.5788 20.8542 35.4093 20.7203 35.2746C20.708 35.2623 20.696 35.2502 20.6843 35.2385L15.7615 30.3157C15.7498 30.304 15.7377 30.292 15.7254 30.2797C15.5907 30.1458 15.4212 29.9771 15.2947 29.7708C15.1851 29.5918 15.1043 29.3967 15.0553 29.1927C14.9988 28.9573 14.9994 28.7182 14.9999 28.5283C15 28.5108 15 28.4938 15 28.4773V21.5227C15 21.5062 15 21.4891 14.9999 21.4717C14.9994 21.2818 14.9988 21.0426 15.0553 20.8073C15.1043 20.6032 15.1851 20.4082 15.2947 20.2292C15.4212 20.0229 15.5907 19.8542 15.7254 19.7203C15.7377 19.708 15.7498 19.696 15.7615 19.6843L20.6843 14.7615C20.696 14.7498 20.708 14.7377 20.7203 14.7254C20.8542 14.5907 21.0229 14.4212 21.2292 14.2947C21.4082 14.1851 21.6033 14.1042 21.8073 14.0553C22.0427 13.9988 22.2818 13.9994 22.4717 13.9999ZM22.2753 16.0026C22.2744 16.0033 22.2736 16.0041 22.2726 16.005C22.2375 16.037 22.1911 16.0831 22.0985 16.1757L17.1757 21.0985C17.0831 21.1911 17.037 21.2375 17.005 21.2726C17.0042 21.2735 17.0034 21.2744 17.0026 21.2753C17.0025 21.2764 17.0025 21.2776 17.0024 21.2789C17.0002 21.3264 17 21.3917 17 21.5227V28.4773C17 28.6083 17.0002 28.6736 17.0024 28.7211C17.0025 28.7224 17.0025 28.7236 17.0026 28.7247C17.0034 28.7256 17.0042 28.7264 17.005 28.7274C17.037 28.7625 17.0831 28.8089 17.1757 28.9015L22.0985 33.8243C22.1911 33.9169 22.2375 33.963 22.2726 33.995C22.2736 33.9958 22.2744 33.9966 22.2753 33.9974C22.2764 33.9975 22.2776 33.9975 22.2789 33.9976C22.3264 33.9998 22.3917 34 22.5227 34H29.4773C29.6083 34 29.6736 33.9998 29.7211 33.9976C29.7224 33.9975 29.7236 33.9975 29.7247 33.9974C29.7256 33.9966 29.7265 33.9958 29.7274 33.995C29.7625 33.963 29.8089 33.9169 29.9015 33.8243L34.8243 28.9015C34.9169 28.8089 34.963 28.7625 34.995 28.7274C34.9959 28.7264 34.9967 28.7256 34.9974 28.7247C34.9975 28.7236 34.9975 28.7224 34.9976 28.7211C34.9998 28.6736 35 28.6083 35 28.4773V21.5227C35 21.3917 34.9998 21.3264 34.9976 21.2789C34.9975 21.2776 34.9975 21.2764 34.9974 21.2753C34.9967 21.2744 34.9959 21.2735 34.995 21.2726C34.963 21.2375 34.9169 21.1911 34.8243 21.0985L29.9015 16.1757C29.8089 16.0831 29.7625 16.037 29.7274 16.005C29.7265 16.0041 29.7256 16.0033 29.7247 16.0026C29.7236 16.0025 29.7224 16.0025 29.7211 16.0024C29.6736 16.0002 29.6083 16 29.4773 16H22.5227C22.3917 16 22.3264 16.0002 22.2789 16.0024C22.2776 16.0025 22.2764 16.0025 22.2753 16.0026ZM26 20C26.5523 20 27 20.4477 27 21V25C27 25.5523 26.5523 26 26 26C25.4477 26 25 25.5523 25 25V21C25 20.4477 25.4477 20 26 20ZM25 29C25 28.4477 25.4477 28 26 28H26.01C26.5623 28 27.01 28.4477 27.01 29C27.01 29.5523 26.5623 30 26.01 30H26C25.4477 30 25 29.5523 25 29Z" fill="url(#paint2_linear_1_8364)"/>
    </g>
    <defs>
        <filter id="filter0_d_1_8364" x="0" y="0" width="52" height="52" filterUnits="userSpaceOnUse" color-interpolation-filters="sRGB">
            <feFlood flood-opacity="0" result="BackgroundImageFix"/>
            <feColorMatrix in="SourceAlpha" type="matrix" values="0 0 0 0 0 0 0 0 0 0 0 0 0 0 0 0 0 0 127 0" result="hardAlpha"/>
            <feOffset dy="1"/>
            <feGaussianBlur stdDeviation="1"/>
            <feComposite in2="hardAlpha" operator="out"/>
            <feColorMatrix type="matrix" values="0 0 0 0 0.0627451 0 0 0 0 0.0941176 0 0 0 0 0.156863 0 0 0 0.05 0"/>
            <feBlend mode="normal" in2="BackgroundImageFix" result="effect1_dropShadow_1_8364"/>
            <feBlend mode="normal" in="SourceGraphic" in2="effect1_dropShadow_1_8364" result="shape"/>
        </filter>
        <radialGradient id="paint0_radial_1_8364" cx="0" cy="0" r="1" gradientUnits="userSpaceOnUse" gradientTransform="translate(26 1) rotate(90) scale(27)">
            <stop stop-color="#213971"/>
            <stop offset="1" stop-color="#00040B" stop-opacity="0.54"/>
        </radialGradient>
        <linearGradient id="paint1_linear_1_8364" x1="19" y1="3.5" x2="28" y2="50.5" gradientUnits="userSpaceOnUse">
            <stop stop-color="#9EBAF8" stop-opacity="0.94"/>
            <stop offset="1" stop-color="#354D81" stop-opacity="0"/>
        </linearGradient>
        <linearGradient id="paint2_linear_1_8364" x1="26" y1="13.9998" x2="26" y2="36.0002" gradientUnits="userSpaceOnUse">
            <stop stop-color="#BFD3FF"/>
            <stop offset="1" stop-color="#467AEB" stop-opacity="0.19"/>
        </linearGradient>
    </defs>
</svg>
